<svg xmlns="http://www.w3.org/2000/svg" width="2000" height="2000" viewBox="0 0 2000 2000">
  <defs>
    <style>
      .cls-1 {
        fill: #ff3d57;
      }

      .cls-1, .cls-2 {
        fill-rule: evenodd;
      }

      .cls-2 {
        fill: #ffcb00;
      }

      .cls-3 {
        fill: #00d647;
      }
    </style>
  </defs>
  <path class="cls-1" d="M395.693,465.73L1435.31,231.27c93.72-21.136,186.89,37.659,208.1,131.322l0.22,0.975a173.729,173.729,0,0,1-131.28,207.862L472.734,805.889c-93.719,21.136-186.89-37.659-208.1-131.322l-0.221-.975A173.73,173.73,0,0,1,395.693,465.73Z"/>
  <path id="Rectangle_1_copy" data-name="Rectangle 1 copy" class="cls-2" d="M395.652,975.571L1435.27,741.111c93.71-21.136,186.89,37.659,208.1,131.322l0.22,0.975a173.731,173.731,0,0,1-131.28,207.862L472.693,1315.73c-93.719,21.14-186.89-37.66-208.1-131.32l-0.221-.98C243.156,1089.77,301.933,996.707,395.652,975.571Z"/>
  <circle class="cls-3" cx="435.5" cy="1610.5" r="175.5"/>
</svg>
