<svg xmlns="http://www.w3.org/2000/svg" width="654" height="653" viewBox="0 0 654 653">
  <defs>
    <style>
      .cls-1 {
        fill: #ff3d57;
      }

      .cls-1, .cls-2, .cls-3 {
        stroke: #fff;
        stroke-linejoin: round;
        stroke-width: 42px;
        fill-rule: evenodd;
      }

      .cls-2 {
        fill: #ffcb00;
      }

      .cls-3 {
        fill: #00d647;
      }
    </style>
  </defs>
  <path class="cls-1" d="M106.621,152.25L516.215,59.7a68.6,68.6,0,0,1,81.99,51.839l0.087,0.385a68.582,68.582,0,0,1-51.724,82.053L136.974,286.527a68.6,68.6,0,0,1-81.99-51.839L54.9,234.3A68.582,68.582,0,0,1,106.621,152.25Z"/>
  <path id="Rectangle_1_copy" data-name="Rectangle 1 copy" class="cls-2" d="M106.605,313.318L516.2,220.765a68.6,68.6,0,0,1,81.99,51.839l0.087,0.385a68.582,68.582,0,0,1-51.724,82.053L136.958,447.6a68.6,68.6,0,0,1-81.99-51.839l-0.087-.385A68.582,68.582,0,0,1,106.605,313.318Z"/>
  <path class="cls-3" d="M99.017,473.947l107.932-24.77c32.063-7.359,64.159,12.85,71.69,45.137s-12.357,64.426-44.42,71.784l-107.932,24.77c-32.063,7.358-64.16-12.85-71.69-45.137S66.954,481.305,99.017,473.947Z"/>
</svg>
