<svg xmlns="http://www.w3.org/2000/svg" width="6000" height="1187" viewBox="0 0 6000 1187">
  <defs>
    <style>
      .cls-1 {
        fill: #ff3d57;
      }

      .cls-1, .cls-2, .cls-3 {
        fill-rule: evenodd;
      }

      .cls-2 {
        fill: #ffcb00;
      }

      .cls-3 {
        fill: #00d647;
      }

      .cls-4 {
        font-size: 1041.667px;
        font-weight: 700;
      }

      .cls-4, .cls-5 {
        fill: #0e1b2f;
        text-anchor: middle;
        font-family: Poppins;
      }

      .cls-5 {
        font-size: 416.667px;
        font-weight: 500;
      }
    </style>
  </defs>
  <path class="cls-1" d="M665.621,347.25l409.6-92.553a68.6,68.6,0,0,1,81.99,51.839l0.08,0.385a68.581,68.581,0,0,1-51.72,82.053l-409.6,92.553a68.6,68.6,0,0,1-81.99-51.839L613.9,429.3A68.582,68.582,0,0,1,665.621,347.25Z"/>
  <path id="Rectangle_1_copy" data-name="Rectangle 1 copy" class="cls-2" d="M665.605,508.318l409.6-92.553a68.6,68.6,0,0,1,81.99,51.839l0.09,0.385a68.587,68.587,0,0,1-51.73,82.053L695.958,642.6a68.6,68.6,0,0,1-81.99-51.839l-0.087-.385A68.582,68.582,0,0,1,665.605,508.318Z"/>
  <path class="cls-3" d="M658.017,668.947l107.932-24.77c32.063-7.359,64.159,12.85,71.69,45.137s-12.357,64.426-44.42,71.784l-107.932,24.77c-32.063,7.358-64.16-12.85-71.69-45.137S625.954,676.305,658.017,668.947Z"/>
  <text id="Funday" class="cls-4" transform="translate(2541.096 757.441) scale(0.654 0.654)"><tspan x="0">Funday</tspan></text>
  <text id="_.com" data-name=".com" class="cls-5" transform="translate(4363.476 753.785) scale(1.03 1.032)"><tspan x="0">.com</tspan></text>
</svg>
