<svg xmlns="http://www.w3.org/2000/svg" width="2000" height="2000" viewBox="0 0 2000 2000">
  <defs>
    <style>
      .cls-1 {
        fill: #ff3d57;
      }

      .cls-1, .cls-2, .cls-3 {
        fill-rule: evenodd;
      }

      .cls-2 {
        fill: #ffcb00;
      }

      .cls-3 {
        fill: #00d647;
      }
    </style>
  </defs>
  <path class="cls-1" d="M324.349,449.113l1259.111-283.9c113.5-25.593,226.35,45.6,252.04,159.017l0.27,1.18c25.69,113.416-45.5,226.105-159,251.7L417.655,861.009c-113.506,25.593-226.348-45.6-252.04-159.017l-0.268-1.18C139.655,587.4,210.843,474.707,324.349,449.113Z"/>
  <path id="Rectangle_1_copy" data-name="Rectangle 1 copy" class="cls-2" d="M324.3,943.19L1583.41,659.285c113.51-25.593,226.35,45.6,252.04,159.017l0.27,1.18c25.69,113.416-45.5,226.108-159,251.7L417.606,1355.09c-113.506,25.59-226.349-45.61-252.041-159.02l-0.267-1.18C139.606,1081.47,210.793,968.784,324.3,943.19Z"/>
  <path class="cls-3" d="M372.56,1415.98c117.39,0,212.554,95.14,212.554,212.51S489.95,1841,372.56,1841s-212.554-95.14-212.554-212.51S255.17,1415.98,372.56,1415.98Z"/>
</svg>
