<svg xmlns="http://www.w3.org/2000/svg" width="6000" height="1187" viewBox="0 0 6000 1187">
  <defs>
    <style>
      .cls-1 {
        fill: #ff3d57;
      }

      .cls-1, .cls-2, .cls-3 {
        fill-rule: evenodd;
      }

      .cls-2 {
        fill: #ffcb00;
      }

      .cls-3 {
        fill: #00d647;
      }

      .cls-4 {
        font-size: 1041.667px;
        font-weight: 700;
      }

      .cls-4, .cls-5 {
        fill: #0e1b2f;
        text-anchor: middle;
        font-family: Poppins;
      }

      .cls-5 {
        font-size: 416.667px;
        font-weight: 500;
      }
    </style>
  </defs>
  <path class="cls-1" d="M451.613,272.641L938.966,162.55a81.616,81.616,0,0,1,97.554,61.662l0.1,0.458a81.574,81.574,0,0,1-61.539,97.6L487.728,432.363A81.619,81.619,0,0,1,390.173,370.7l-0.1-.457A81.578,81.578,0,0,1,451.613,272.641Z"/>
  <path id="Rectangle_1_copy" data-name="Rectangle 1 copy" class="cls-2" d="M451.594,494.231L938.946,384.14A81.615,81.615,0,0,1,1036.5,445.8l0.1,0.458a81.567,81.567,0,0,1-61.538,97.6L487.709,653.953a81.619,81.619,0,0,1-97.555-61.663l-0.1-.457A81.578,81.578,0,0,1,451.594,494.231Z"/>
  <path class="cls-3" d="M442.565,717.193l128.423-29.464c38.149-8.752,76.339,15.286,85.3,53.691s-14.7,76.634-52.852,85.387L475.012,856.271c-38.149,8.752-76.339-15.286-85.3-53.691S404.416,725.946,442.565,717.193Z"/>
  <text id="Funday" class="cls-4" transform="translate(2541.096 757.441) scale(0.654 0.654)"><tspan x="0">Funday</tspan></text>
  <text id="_.com" data-name=".com" class="cls-5" transform="translate(4624.278 750.312) scale(1.684 1.687)"><tspan x="0">.com</tspan></text>
</svg>
